<svg xmlns="http://www.w3.org/2000/svg" viewBox="0 0 100 100" width="100" height="100" fill="none">
  <rect x="4" y="4" width="92" height="92" rx="2" fill="none" stroke="#a4a4ae" stroke-width="8"/>
  <rect x="0.75" y="0.75" width="98.5" height="98.5" fill="none" stroke="#a4a4ae" stroke-width="1.5"/>
  <rect x="11" y="11" width="78" height="78" fill="none" stroke="#dc143c" stroke-width="2.5"/>
  <g fill="#dc143c">
    <path d="M1 1 h18 l-6 6 h-6 v6 z"/>
    <path d="M99 1 h-18 l6 6 h6 v6 z"/>
    <path d="M1 99 h18 l-6 -6 h-6 v-6 z"/>
    <path d="M99 99 h-18 l6 -6 h6 v-6 z"/>
  </g>
  <g fill="#a4a4ae">
    <path d="M50 1.5 l5 5 l-5 5 l-5 -5 z"/>
    <path d="M50 98.5 l5 -5 l-5 -5 l-5 5 z"/>
    <path d="M1.5 50 l5 5 l5 -5 l-5 -5 z"/>
    <path d="M98.5 50 l-5 5 l-5 -5 l5 -5 z"/>
  </g>
</svg>
