<svg xmlns="http://www.w3.org/2000/svg" viewBox="0 0 64 64" width="64" height="64" fill="none">
  <!-- Placeholder boost potion: a stoppered flask of bright purple, spent on a
       friend to lift one chest they earn. The kind is still 'oil' in the code.
       Swap this file for real artwork; nothing in the code names the shapes
       inside it. -->
  <path d="M28 13h8v11h-8z" fill="#2a1840" stroke="#e9d5ff" stroke-width="2" stroke-linejoin="round"/>
  <path d="M28 22c0 4-2 6-6 9-7 4-10 10-10 15 0 7 9 12 20 12s20-5 20-12c0-5-3-11-10-15-4-3-6-5-6-9z" fill="#2a1840" stroke="#e9d5ff" stroke-width="2" stroke-linejoin="round"/>
  <path d="M15 38c-2 3-3 5.6-3 8 0 7 9 12 20 12s20-5 20-12c0-2.4-1-5-3-8z" fill="#a855f7"/>
  <ellipse cx="32" cy="38" rx="17" ry="2.6" fill="#c77dff"/>
  <circle cx="24" cy="47" r="2.2" fill="#e9d5ff" opacity="0.55"/>
  <circle cx="39" cy="51" r="1.5" fill="#e9d5ff" opacity="0.45"/>
  <path d="M19 46c0-4 2-7 5-10" stroke="#f3e8ff" stroke-width="2.5" stroke-linecap="round" opacity="0.5"/>
  <path d="M26 6h12v8H26z" fill="#7c3aed" stroke="#e9d5ff" stroke-width="2" stroke-linejoin="round"/>
</svg>
